<?xml version="1.0" encoding="UTF-8" standalone="no"?>
<!-- Created with Inkscape (http://www.inkscape.org/) -->

<svg
   width="2581.5769"
   height="549.99933"
   viewBox="0 0 683.04224 145.52065"
   version="1.1"
   id="svg10269"
   sodipodi:docname="title.svg"
   inkscape:version="1.2 (dc2aedaf03, 2022-05-15)"
   xmlns:inkscape="http://www.inkscape.org/namespaces/inkscape"
   xmlns:sodipodi="http://sodipodi.sourceforge.net/DTD/sodipodi-0.dtd"
   xmlns="http://www.w3.org/2000/svg"
   xmlns:svg="http://www.w3.org/2000/svg">
  <sodipodi:namedview
     id="namedview10271"
     pagecolor="#ffffff"
     bordercolor="#000000"
     borderopacity="0.25"
     inkscape:showpageshadow="2"
     inkscape:pageopacity="0.0"
     inkscape:pagecheckerboard="0"
     inkscape:deskcolor="#d1d1d1"
     inkscape:document-units="px"
     showgrid="false"
     inkscape:zoom="0.914906"
     inkscape:cx="796.25666"
     inkscape:cy="278.17065"
     inkscape:window-width="2560"
     inkscape:window-height="1379"
     inkscape:window-x="0"
     inkscape:window-y="30"
     inkscape:window-maximized="1"
     inkscape:current-layer="svg10269" />
  <defs
     id="defs10266" />
  <g
     id="g7286"
     transform="matrix(1.0324833,0,0,1.0324833,-29.059389,9.5839459)">
    <path
       style="fill:#f7f5ed;fill-opacity:1;stroke:none;stroke-width:1.32292;stroke-linecap:square;stroke-linejoin:miter;stroke-miterlimit:4;stroke-dasharray:none;stroke-opacity:1;paint-order:stroke fill markers"
       d="M 12.760849,37.456213 H 101.70758 V 108.13363 H 12.718051 Z"
       id="path7546"
       transform="matrix(0.96853868,0,0,0.96853868,28.145138,-12.357524)"
       inkscape:label="mid-sign" />
    <g
       id="rect4252"
       inkscape:label="bottom"
       style="fill:#13449f;fill-opacity:1;stroke:#000000;stroke-width:2.64583;stroke-linecap:square;stroke-linejoin:miter;stroke-miterlimit:4;paint-order:fill markers stroke"
       transform="translate(-0.01460512)">
      <path
         style="color:#000000;fill:#13449f;fill-opacity:1;stroke:none;stroke-width:2.64583;stroke-linecap:square;stroke-linejoin:miter;stroke-miterlimit:4;-inkscape-stroke:none"
         d="m 40.590973,94.869499 85.860997,0.01757 c 0,0 0.0372,4.952334 0.0372,7.448241 0,2.4959 -0.66911,3.82381 -2.42809,5.59455 -2.5193,2.53615 -4.86427,1.97706 -8.43902,1.98651 -3.57268,0.009 -10.71112,-0.009 -10.71112,-0.009 l -10.720692,0.008 -10.729137,0.002 -10.727373,0.0208 -10.691742,-0.0256 c 0,0 -10.08364,-0.004 -10.771326,-0.002 -2.575334,0.009 -5.793491,0.52129 -8.320077,-2.00529 -1.76487,-1.76487 -2.367599,-3.4408 -2.35965,-5.54891 0.0071,-1.88968 0,-7.487704 0,-7.487704 z"
         id="path7193"
         sodipodi:nodetypes="ccssscccccsssc" />
    </g>
    <g
       id="g7247"
       inkscape:label="top"
       style="fill:#da2b65;fill-opacity:1;stroke:#000000;stroke-width:2.64583;stroke-linecap:square;stroke-linejoin:miter;stroke-miterlimit:4;paint-order:fill markers stroke"
       transform="matrix(1,0,0,-1,-0.01460426,116.2524)">
      <path
         style="color:#000000;fill:#da2b65;fill-opacity:1;stroke:none;stroke-width:2.64583;stroke-linecap:square;stroke-linejoin:miter;stroke-miterlimit:4;-inkscape-stroke:none"
         d="m 40.590973,94.869499 85.860997,0.01757 c 0,0 0.0372,4.952334 0.0372,7.448241 0,2.4959 -0.66911,3.82381 -2.42809,5.59455 -2.5193,2.53615 -4.86427,1.97706 -8.43902,1.98651 -3.57268,0.009 -10.71112,-0.009 -10.71112,-0.009 l -10.720692,0.008 -10.729137,0.002 -10.727373,0.0208 -10.691742,-0.0256 c 0,0 -10.08364,-0.004 -10.771326,-0.002 -2.575334,0.009 -5.793491,0.52129 -8.320077,-2.00529 -1.76487,-1.76487 -2.367599,-3.4408 -2.35965,-5.54891 0.0071,-1.88968 0,-7.487704 0,-7.487704 z"
         id="path7245"
         sodipodi:nodetypes="ccssscccccsssc" />
    </g>
    <g
       id="g3911"
       inkscape:label="Sign"
       transform="matrix(2.0918173,0,0,2.0918173,-84.70159,-132.11396)"
       style="fill:none;fill-opacity:1;stroke-width:1.26485;stroke-dasharray:none">
      <rect
         x="65.538933"
         y="-101.58813"
         width="50.799999"
         height="42.333332"
         rx="4.2333331"
         transform="rotate(90)"
         fill="none"
         stroke="#000000"
         stroke-linecap="round"
         stroke-linejoin="round"
         stroke-width="4.23333"
         id="rect3891"
         style="fill:none;fill-opacity:1;stroke-width:1.26485;stroke-dasharray:none" />
      <line
         x1="59.254803"
         y1="74.005608"
         x2="101.58813"
         y2="74.005608"
         fill="none"
         stroke="#000000"
         stroke-linecap="round"
         stroke-linejoin="round"
         stroke-width="4.23333"
         id="line3893"
         style="fill:none;fill-opacity:1;stroke-width:1.26485;stroke-dasharray:none" />
      <line
         x1="59.254803"
         y1="107.87228"
         x2="101.58813"
         y2="107.87228"
         fill="none"
         stroke="#000000"
         stroke-linecap="round"
         stroke-linejoin="round"
         stroke-width="4.23333"
         id="line3895"
         style="fill:none;fill-opacity:1;stroke-width:1.26485;stroke-dasharray:none" />
    </g>
  </g>
  <g
     aria-label="L"
     id="text10691"
     style="font-size:232.554px;font-family:Cookie;-inkscape-font-specification:'Cookie, Normal';text-align:center;text-anchor:middle;display:inline;fill:#a6a6a5;stroke:#000000;stroke-width:4.36038;stroke-linecap:round;stroke-linejoin:round;paint-order:stroke fill markers">
    <path
       d="M 45.667789,54.504838 Q 48.923545,29.389006 60.7838,15.900874 72.876608,2.1801877 92.411144,2.1801877 q 19.534536,0 19.534536,13.4881323 0,9.069606 -4.41853,16.743888 -4.18597,7.441728 -11.395142,12.557916 -14.185794,9.534714 -33.255222,13.720686 -4.65108,39.999288 -13.720687,57.20828 21.394969,7.20918 28.836697,9.30216 7.441728,1.86044 15.581118,1.86044 8.371946,0 11.395146,-6.74407 3.0232,-6.74407 4.41853,-6.74407 2.79064,0 2.79064,3.48831 0,10.93004 -8.13939,18.60432 -8.139386,7.67429 -17.6741,7.67429 -9.767268,0 -17.674104,-3.25576 -7.906836,-3.25576 -9.999822,-4.18597 -2.092986,-0.93022 -8.604499,-3.95342 -6.278958,-3.0232 -8.837052,-4.18597 -8.837052,9.30216 -23.720508,9.30216 -6.046404,0 -10.6974837,-4.41853 -4.65108,-4.41852 -4.65108,-10.46493 0,-13.25558 15.1160097,-13.25558 6.511512,0 18.139212,3.02321 4.418526,-13.953244 9.30216,-50.696776 -2.558094,0.232554 -6.97662,0.232554 -4.185972,0 -4.185972,-1.395324 0,-4.418526 12.092808,-5.581296 z m 17.906659,-2.558094 q 14.883456,-3.255756 24.41817,-10.930038 9.767268,-7.906836 9.767268,-20.464752 0,-12.5579163 -8.604498,-12.5579163 -18.836874,0 -25.58094,43.9527063 z M 30.086671,122.87571 q -13.488132,-5.81385 -16.743888,-5.81385 -3.023202,0 -3.023202,3.25576 0,3.25576 2.790648,5.5813 3.023202,2.32554 7.674282,2.32554 4.65108,0 9.30216,-5.34875 z"
       id="path460" />
  </g>
  <g
     aria-label="incoln Highway Journal"
     id="text348"
     style="font-size:84.6667px;font-family:Cookie;-inkscape-font-specification:'Cookie, Normal';text-align:center;text-anchor:middle;fill:#fcfbf3;stroke:#000000;stroke-width:3.96875;stroke-linecap:square;paint-order:stroke fill markers">
    <path
       d="m 75.100072,63.406134 q 0,-1.524001 1.608668,-2.624668 1.608667,-1.100667 2.878667,-1.100667 2.286001,0 2.286001,2.624668 0,2.624667 -1.354667,4.572002 -1.354667,1.862667 -3.810001,1.862667 -1.608668,0 -1.608668,-5.334002 z m 2.455335,41.825346 q -3.302002,0 -4.995336,-1.35466 -0.592667,-0.59267 -0.592667,-4.233338 0,-3.640668 0.508,-12.107338 0.592667,-8.551337 1.016001,-9.228671 0.423333,-0.677333 2.624668,-2.540001 2.201334,-1.862667 3.386668,-1.862667 1.27,0 1.27,3.217335 0,0.846667 -0.508,3.302001 -0.423333,2.455334 -1.016,3.556001 -1.100668,2.794002 -1.100668,14.64734 0,2.285998 0.508001,2.285998 1.439334,-0.0847 3.979335,-3.555999 2.540001,-3.556001 4.995335,-9.059337 2.540001,-5.503335 3.048001,-5.503335 0.592667,0 0.592667,0.677333 0,2.370668 -2.455334,7.535337 -6.68867,14.224001 -11.260671,14.224001 z"
       id="path317" />
    <path
       d="m 93.388015,100.23615 0.08467,2.62467 q 0,2.37066 -1.354667,2.37066 -2.032001,0 -3.894668,-0.508 -1.862668,-0.59266 -1.862668,-1.524 0,-1.016 0.423334,-6.688666 0.508,-5.757335 0.508,-8.636003 v -4.995336 q 0,-4.064001 0.846667,-4.910668 0.846667,-0.846667 2.963334,-2.455335 2.201335,-1.608667 3.132668,-1.608667 1.016001,0 1.270001,0.338667 0.254,0.338667 0.254,1.27 0,4.487335 -1.693334,8.46667 -0.423333,4.826003 -0.423333,6.68867 0.338666,-0.508 3.556001,-5.757336 3.217333,-5.249335 5.418673,-7.70467 2.286,-2.455334 4.064,-2.455334 1.778,0 3.13267,1.185334 1.43933,1.185334 1.43933,2.963334 0,3.725335 -0.84667,11.006672 -0.762,7.196669 -0.762,9.144003 0,1.862665 0.508,1.862665 1.43934,-0.0847 3.97934,-3.555999 2.54,-3.556001 4.99533,-9.059337 2.54,-5.503335 3.048,-5.503335 0.59267,0 0.59267,0.677333 0,2.370668 -2.45533,7.535337 -6.68867,14.224001 -11.26067,14.224001 -3.30201,0 -4.99534,-1.35466 -0.59267,-0.59267 -0.59267,-3.048 0,-2.540005 0.42334,-8.128007 0.508,-5.672669 0.508,-8.46667 0,-2.794002 -1.016,-2.794002 -0.93134,0 -5.080006,5.842003 -4.148668,5.757336 -4.402668,7.366003 -0.508001,2.963335 -0.508001,5.588003 z"
       id="path319" />
    <path
       d="m 133.35056,84.234143 0.67734,-4.318002 q 0,-0.931334 -0.59267,-1.693334 -0.59267,-0.762001 -1.524,-0.762001 -3.13267,0 -5.41867,4.741336 -2.286,4.656668 -2.286,8.97467 0,4.318002 1.778,7.027336 1.778,2.624672 4.318,2.624672 2.62467,0 4.65667,-1.185338 2.032,-1.185333 3.72533,-3.386668 3.55601,-4.656668 6.09601,-10.583337 0.67733,-1.524001 1.016,-2.201335 0.42333,-0.677333 0.84666,-0.677333 0.508,0 0.508,0.677333 0,2.794001 -1.94733,6.68867 -1.94733,3.894668 -3.302,6.011336 -1.27,2.032 -3.302,4.318002 -4.23334,4.74133 -10.58334,4.74133 -4.826,0 -7.366,-3.38666 -2.45534,-3.471338 -2.45534,-7.366006 0,-9.652004 4.14867,-14.64734 4.23334,-5.080002 10.668,-5.080002 2.70934,0 4.23334,1.439334 1.60867,1.354667 1.60867,3.132668 0,3.302001 -1.18534,4.910669 -1.18533,1.608667 -2.87866,1.608667 -1.43934,0 -1.43934,-1.608667 z"
       id="path321" />
    <path
       d="m 168.91052,86.435477 q 3.38667,-1.100667 4.65667,-1.862668 1.35466,-0.846667 2.032,-1.27 l 1.016,-0.592667 q 0.42333,-0.254 0.67733,-0.254 0.67734,0 0.67734,0.762 0,0.762 -2.62467,2.709335 -2.62467,1.862667 -6.51934,3.386668 -0.59267,7.112003 -4.48733,11.514675 -3.89467,4.40266 -11.09134,4.40266 -5.24934,0 -8.04334,-4.14866 -2.794,-4.233339 -2.794,-9.821341 0,-5.672669 3.302,-10.668005 3.38667,-4.995335 8.63601,-4.995335 2.37066,-1.693334 5.588,-1.693334 3.302,0 6.096,3.471335 2.794,3.471335 2.87867,9.059337 z m -5.50334,4.318002 -3.048,0.169333 q -3.89467,0 -6.604,-2.286001 -2.70934,-2.370668 -2.70934,-5.164669 0,-2.794001 0.93134,-4.826002 -3.64067,2.878668 -3.64067,11.345338 0,4.064002 1.69333,7.789337 1.69334,3.640665 5.33401,3.640665 3.64066,0 5.67266,-3.047998 2.03201,-3.132668 2.37067,-7.620003 z m -5.24933,-14.054673 q -1.35467,0 -2.11667,1.270001 -0.762,1.185333 -0.762,2.624667 0,3.132668 2.11667,5.080003 2.20133,1.947334 5.08,1.947334 h 1.016 q -0.16933,-4.148669 -1.43933,-7.535337 -1.18534,-3.386668 -3.89467,-3.386668 z"
       id="path323" />
    <path
       d="m 179.40905,105.23148 q -1.86267,0 -3.47133,-0.42333 -1.524,-0.508 -1.86267,-0.93133 -0.84667,-1.016 -0.84667,-10.498674 0,-9.567337 2.11667,-25.90801 1.778,-13.462006 8.29734,-13.462006 1.524,0 2.20133,1.693334 0.67734,1.608667 0.67734,3.132668 0,11.006671 -6.68867,24.63801 -0.254,7.027337 -0.254,12.276672 0,5.164666 0.93133,5.164666 1.43933,-0.0847 3.97933,-3.555999 2.54001,-3.556001 4.99534,-9.059337 2.54,-5.503335 3.048,-5.503335 0.59267,0 0.59267,0.677333 0,2.370668 -2.45534,7.535337 -6.68867,14.224001 -11.26067,14.224001 z m 4.99534,-45.635348 q 0,-2.709334 -0.67734,-2.709334 -2.54,0 -3.72533,21.082009 4.40267,-11.599339 4.40267,-18.372675 z"
       id="path325" />
    <path
       d="m 194.649,100.23615 0.0847,2.62467 q 0,2.37066 -1.35466,2.37066 -2.032,0 -3.89467,-0.508 -1.86267,-0.59266 -1.86267,-1.524 0,-1.016 0.42334,-6.688666 0.508,-5.757335 0.508,-8.636003 v -4.995336 q 0,-4.064001 0.84666,-4.910668 0.84667,-0.846667 2.96334,-2.455335 2.20133,-1.608667 3.13266,-1.608667 1.01601,0 1.27001,0.338667 0.254,0.338667 0.254,1.27 0,4.487335 -1.69334,8.46667 -0.42333,4.826003 -0.42333,6.68867 0.33866,-0.508 3.556,-5.757336 3.21733,-5.249335 5.41867,-7.70467 2.286,-2.455334 4.064,-2.455334 1.778,0 3.13267,1.185334 1.43933,1.185334 1.43933,2.963334 0,3.725335 -0.84666,11.006672 -0.76201,7.196669 -0.76201,9.144003 0,1.862665 0.508,1.862665 1.43934,-0.0847 3.97934,-3.555999 2.54,-3.556001 4.99534,-9.059337 2.54,-5.503335 3.048,-5.503335 0.59266,0 0.59266,0.677333 0,2.370668 -2.45533,7.535337 -6.68867,14.224001 -11.26067,14.224001 -3.302,0 -4.99534,-1.35466 -0.59266,-0.59267 -0.59266,-3.048 0,-2.540005 0.42333,-8.128007 0.508,-5.672669 0.508,-8.46667 0,-2.794002 -1.016,-2.794002 -0.93133,0 -5.08,5.842003 -4.14867,5.757336 -4.40267,7.366003 -0.508,2.963335 -0.508,5.588003 z"
       id="path327" />
    <path
       d="m 241.97749,63.321467 q 0,2.032001 1.016,3.725335 1.016,1.608667 1.016,2.624668 0,0.931334 -0.508,1.693334 -0.42333,0.762 -1.18533,0.762 -1.43934,0 -2.37067,-2.455334 -0.93133,-2.455335 -0.93133,-5.164669 0,-4.064002 2.96333,-7.281336 3.048,-3.217335 7.70467,-3.217335 3.13267,0 4.65667,3.048001 1.60867,2.963335 1.60867,6.773336 0,3.810002 -0.254,7.19667 -0.16934,3.302001 -0.33867,5.164669 -0.16933,1.778001 -0.67733,5.757336 -0.508,3.894668 -0.67734,5.418669 6.77334,0 14.22401,-6.858003 1.016,-12.192005 2.794,-19.050008 1.86267,-6.94267 3.72533,-9.736671 1.86267,-2.794001 3.97934,-2.794001 2.20133,0 3.556,1.947334 1.43934,1.947334 1.43934,4.656669 0,9.99067 -8.89001,21.590009 -0.508,6.688669 -0.508,12.361338 0,5.588002 1.60867,10.922002 1.69333,5.24934 1.69333,5.84201 0,0.67733 -0.93133,1.016 -0.93133,0.42333 -2.032,0.42333 -2.96334,0 -4.826,-1.524 -0.93134,-0.762 -1.524,-5.16467 -0.59267,-4.402669 -0.59267,-8.21267 0,-3.894669 0.254,-8.382004 -7.53534,6.434669 -14.30867,6.688669 -0.0847,1.185334 -0.16934,3.979335 -0.0847,2.709335 -0.254,4.064002 -0.16933,1.269998 -0.67733,2.963338 -0.84667,3.13266 -4.064,3.13266 -1.94734,0 -1.94734,-3.302 0,-3.386665 1.016,-11.684002 -3.81,-1.608667 -3.81,-5.672669 0,-2.963334 1.524,-4.995335 1.524,-2.116668 3.72534,-2.116668 0.762,-7.789336 0.762,-12.022671 0,-7.620004 -2.37067,-7.620004 -5.41867,0 -5.41867,5.503336 z m 39.03135,-6.350003 q 0,-1.27 -0.42333,-2.286 -0.33867,-1.100668 -0.93134,-1.100668 -2.37066,0 -4.318,18.372675 5.67267,-8.636004 5.67267,-14.986007 z m -32.25801,23.198677 q -1.18534,0.846667 -1.18534,2.286001 0,1.439334 0.67734,2.370668 z"
       id="path329" />
    <path
       d="m 286.00411,63.406134 q 0,-1.524001 1.60867,-2.624668 1.60866,-1.100667 2.87866,-1.100667 2.28601,0 2.28601,2.624668 0,2.624667 -1.35467,4.572002 -1.35467,1.862667 -3.81,1.862667 -1.60867,0 -1.60867,-5.334002 z m 2.45533,41.825346 q -3.302,0 -4.99533,-1.35466 -0.59267,-0.59267 -0.59267,-4.233338 0,-3.640668 0.508,-12.107338 0.59267,-8.551337 1.016,-9.228671 0.42334,-0.677333 2.62467,-2.540001 2.20133,-1.862667 3.38667,-1.862667 1.27,0 1.27,3.217335 0,0.846667 -0.508,3.302001 -0.42334,2.455334 -1.016,3.556001 -1.10067,2.794002 -1.10067,14.64734 0,2.285998 0.508,2.285998 1.43934,-0.0847 3.97934,-3.555999 2.54,-3.556001 4.99533,-9.059337 2.54,-5.503335 3.048,-5.503335 0.59267,0 0.59267,0.677333 0,2.370668 -2.45533,7.535337 -6.68867,14.224001 -11.26068,14.224001 z"
       id="path331" />
    <path
       d="m 317.07672,91.854146 q -2.62467,6.942669 -4.91067,10.160004 -2.20133,3.21733 -5.842,3.21733 -3.64067,0 -6.18067,-3.13266 -2.45533,-3.132671 -2.45533,-9.990674 0,-6.858003 3.81,-12.107339 3.89467,-5.249335 10.16,-5.249335 1.27,0 3.048,1.100667 1.778,1.016 3.13267,2.540001 0.254,-0.846667 2.45534,-2.624668 2.20133,-1.862667 3.38666,-1.862667 1.27,0 1.27,3.640668 0,3.640668 -1.524,6.434669 -0.84666,5.67267 -0.93133,10.498672 8.29734,-10.498672 8.80534,-11.091338 0.59266,-0.592667 1.016,-0.592667 0.84666,0 0.84666,0.846667 0,0.508 -0.33866,1.100667 -2.70934,3.979335 -10.66801,13.970006 -0.508,10.075341 -0.67733,13.716001 -0.42333,10.75268 -3.048,15.07068 -2.54,4.40267 -9.14401,4.40267 -2.87866,0 -5.41866,-1.778 -2.45534,-1.69334 -2.45534,-6.01134 0,-4.23334 3.21734,-8.72067 3.302,-4.48734 11.938,-13.80067 z m -5.92667,-14.054673 q -2.37067,0 -5.08,3.725335 -2.62467,3.640668 -2.62467,8.46667 0,4.741336 1.35467,7.789337 1.43933,2.963335 3.556,2.963335 2.11667,0 4.064,-3.471335 1.94734,-3.471335 4.99534,-11.938005 0.16933,-2.878668 0.16933,-3.640668 -0.67733,-1.270001 -2.794,-2.540002 -2.11667,-1.354667 -3.64067,-1.354667 z m 5.16467,27.770677 q -9.652,10.41401 -9.652,16.67934 0,2.87867 1.016,4.74134 1.016,1.86266 2.794,1.86266 2.70933,0 3.81,-2.96333 1.10067,-2.96333 1.60867,-12.02267 z"
       id="path333" />
    <path
       d="m 336.21138,100.23615 0.0847,2.62467 q 0,2.37066 -1.35467,2.37066 -2.032,0 -3.89466,-0.508 -1.86267,-0.59266 -1.86267,-1.524 0,-1.016 0.42333,-6.688666 0.508,-5.757335 0.508,-8.636003 v -4.910669 q 0,-21.674676 7.70467,-27.601345 1.778,-1.354667 3.64067,-1.354667 0.84667,0 1.69333,1.862667 0.84667,1.862668 0.84667,4.826002 0,7.281337 -2.45533,13.631339 -2.45534,6.350003 -4.99534,9.736671 -0.0847,2.116668 -0.0847,6.604003 0.33867,-0.508 3.55601,-5.757336 3.21733,-5.249335 5.41867,-7.70467 2.286,-2.455334 4.064,-2.455334 1.778,0 3.13267,1.185334 1.43933,1.185334 1.43933,2.963334 0,3.725335 -0.84667,11.006672 -0.762,7.196669 -0.762,9.144003 0,1.862665 0.508,1.862665 1.43934,-0.0847 3.97934,-3.555999 2.54,-3.556001 4.99533,-9.059337 2.54,-5.503335 3.048,-5.503335 0.59267,0 0.59267,0.677333 0,2.370668 -2.45533,7.535337 -6.68867,14.224001 -11.26068,14.224001 -3.302,0 -4.99533,-1.35466 -0.59267,-0.59267 -0.59267,-3.048 0,-2.540005 0.42334,-8.128007 0.508,-5.672669 0.508,-8.46667 0,-2.794002 -1.016,-2.794002 -0.93134,0 -5.08001,5.842003 -4.14866,5.757336 -4.40267,7.366003 -0.508,2.963335 -0.508,5.588003 z m 5.50334,-37.676683 q 0,-3.556002 -0.93133,-3.556002 -1.524,0 -2.96334,9.398004 -0.762,4.995336 -1.10067,11.599338 4.99534,-10.414004 4.99534,-17.44134 z"
       id="path335" />
    <path
       d="m 395.81659,87.282144 q 3.556,0 6.604,-3.048001 1.524,-1.524001 2.032,-1.524001 0.59267,0 0.59267,0.846667 0,0.846667 -1.10067,2.032001 -4.48733,4.995335 -11.26067,4.995335 -1.35466,6.265336 -4.23333,10.498675 -2.87867,4.14866 -7.28134,4.14866 -4.40267,0 -6.35,-5.16466 -3.47134,5.16466 -7.19667,5.16466 -7.02734,0 -7.02734,-13.546668 0,-9.398004 1.86267,-12.784672 0.33867,-0.592667 2.54,-1.947334 2.20134,-1.354667 3.048,-1.354667 1.27,0 1.27,1.524001 -0.16933,3.979335 -2.37066,9.398004 -0.50801,1.016 -0.50801,4.910668 0,3.810002 0.84667,6.773336 0.93134,2.878672 2.62467,2.878672 1.69333,0 4.14867,-4.064005 -0.42334,-2.116668 -0.42334,-4.487336 0,-2.455334 0.508,-5.164668 0.508,-2.794002 2.03201,-5.588003 1.524,-2.794001 3.64066,-2.794001 0.67734,0 0.93134,0.423334 0.33866,0.423333 0.33866,2.032 0,4.318002 -2.286,10.752672 0.33867,3.725335 1.69334,6.350002 1.43933,2.540005 3.13267,2.540005 2.45533,0 4.14866,-3.132672 1.69334,-3.217334 2.62467,-7.789336 -3.13267,-0.846667 -4.826,-3.217335 -1.69333,-2.370668 -1.69333,-5.418669 0,-3.132668 1.43933,-5.334002 1.524,-2.286001 4.40267,-2.286001 3.89467,0 3.89467,8.382003 0,2.201335 -0.254,4.572002 1.27,0.423334 2.45533,0.423334 z M 389.12792,77.12214 q -0.762,0 -0.762,2.878667 0,2.878668 2.62467,5.334003 0.0847,-0.423334 0.0847,-1.270001 0,-6.942669 -1.94734,-6.942669 z"
       id="path337" />
    <path
       d="m 423.75646,105.23148 q -3.302,0 -4.99534,-1.35466 -0.59266,-0.59267 -0.59266,-2.96334 0,-2.455331 0.16933,-6.519333 -2.20133,5.503336 -4.40267,8.212673 -2.11667,2.62466 -5.50333,2.62466 -3.38667,0 -5.92667,-3.13266 -2.54,-3.217338 -2.54,-9.990674 0,-6.858003 3.81,-12.107339 3.89467,-5.249335 10.16,-5.249335 2.70934,0 6.096,3.556001 0.67734,-0.931333 2.37067,-2.201334 1.778,-1.354667 2.96334,-1.354667 1.27,0 1.27,3.217335 0,0.846667 -0.508,3.302001 -0.42334,2.455334 -1.016,3.556002 -0.762,1.947334 -0.762,13.800672 0,2.285998 0.508,2.285998 1.43933,-0.0847 3.97933,-3.555999 2.54,-3.556001 4.99534,-9.059337 2.54,-5.503335 3.048,-5.503335 0.59266,0 0.59266,0.677333 0,2.370668 -2.45533,7.535337 -6.68867,14.224001 -11.26067,14.224001 z M 413.42712,78.13814 q -2.37067,0 -5.08,3.556002 -2.62467,3.471334 -2.62467,8.21267 0,4.741335 1.35467,7.789336 1.43933,3.048002 3.72533,3.048002 2.794,0 8.21267,-13.970006 0.0847,-0.677334 0.16934,-2.286001 0.16933,-1.693334 0.254,-2.540001 -0.762,-1.354668 -2.70934,-2.540001 -1.86267,-1.270001 -3.302,-1.270001 z"
       id="path339" />
    <path
       d="m 432.39242,97.442148 0.508,-9.482671 q 0,-9.059337 0.84667,-9.906004 0.84667,-0.846667 2.96333,-2.455334 2.20134,-1.693334 3.13267,-1.693334 1.016,0 1.27,0.338667 0.254,0.338667 0.254,1.354667 0,3.640668 -1.60866,7.366003 -1.27,7.789337 -1.27,12.784672 0,4.995336 1.18533,4.995336 2.032,0 4.65667,-3.556002 2.70933,-3.640668 5.50333,-10.668004 0.0847,-1.862668 0.16934,-3.894669 0.0847,-2.116667 0.16933,-3.048001 0.0847,-1.016 0.0847,-1.439334 0.0847,-0.423333 2.37066,-2.286001 2.28601,-1.947334 3.47134,-1.947334 1.27,0 1.27,3.217335 0,0.846667 -0.508,3.302001 -0.42333,2.455334 -1.016,3.556001 -0.67733,6.011336 -0.93133,10.498672 8.29733,-10.498672 8.80533,-11.091338 0.59267,-0.592667 1.016,-0.592667 0.84667,0 0.84667,0.846667 0,0.508 -0.33867,1.100667 -2.70933,3.979335 -10.668,13.970006 -0.508,10.075341 -0.67734,13.716001 -0.42333,10.75268 -3.048,15.07068 -2.54,4.40267 -9.144,4.40267 -2.87867,0 -5.41867,-1.778 -2.45533,-1.69334 -2.45533,-6.01134 0,-4.23334 3.21733,-8.72067 3.302,-4.48734 11.93801,-13.80067 l 0.508,-9.228674 q -2.87867,6.350003 -5.67267,9.652004 -2.794,3.21733 -6.18067,3.21733 -3.38667,0 -4.318,-1.69333 -0.93134,-1.69333 -0.93134,-6.096002 z m 16.34068,8.128002 q -9.65201,10.41401 -9.65201,16.67934 0,2.87867 1.016,4.74134 1.016,1.86266 2.794,1.86266 2.70934,0 3.81001,-2.96333 1.10066,-2.96333 1.60866,-12.02267 z"
       id="path341" />
    <path
       d="m 485.47827,74.243472 q 0,-5.164669 4.48733,-8.636004 4.48734,-3.471335 12.19201,-5.164669 0.508,-3.556001 2.87867,-5.672669 2.37066,-2.116667 4.23333,-2.116667 1.94733,0 3.048,1.100667 1.18534,1.016 1.18534,2.794001 0,4.148668 -5.84201,5.757336 -1.27,23.706676 -1.27,24.299343 2.54,-1.439334 5.92667,-2.709334 3.47134,-1.354667 4.91067,-1.354667 1.43933,0 1.43933,0.592666 0,1.100668 -1.016,1.439334 -5.50333,1.778001 -11.34533,5.334003 -0.67734,17.949338 -0.84667,21.505338 -0.59267,9.99067 -4.40267,15.24001 -3.81,5.24934 -10.58334,5.24934 -5.334,0 -8.46667,-4.40267 -3.13267,-4.318 -3.13267,-9.56734 0,-7.45067 5.24934,-14.05467 5.24934,-6.688672 16.00201,-13.716008 l 1.778,-26.754678 q -10.75267,1.862667 -10.75267,9.22867 0,2.116668 -0.93134,3.302002 -0.84666,1.185334 -2.20133,1.185334 -2.54,0 -2.54,-2.878668 z m 6.18067,54.610018 q 5.75733,0 6.77333,-12.78467 0.508,-6.43467 0.84667,-12.78467 0.42333,-6.350002 0.59267,-9.059337 -3.47134,2.455335 -5.58801,4.233336 -2.11666,1.693331 -4.572,4.318001 -4.65667,5.24934 -4.65667,12.70001 0,7.19667 2.45534,11.00667 1.60867,2.37066 4.14867,2.37066 z m 18.37267,-73.321359 q -1.86267,0 -2.20133,3.810001 3.048,-0.931334 3.048,-2.455334 0,-1.354667 -0.84667,-1.354667 z"
       id="path343" />
    <path
       d="m 540.51154,86.435477 q 3.38667,-1.100667 4.65667,-1.862668 1.35466,-0.846667 2.032,-1.27 l 1.016,-0.592667 q 0.42333,-0.254 0.67733,-0.254 0.67734,0 0.67734,0.762 0,0.762 -2.62467,2.709335 -2.62467,1.862667 -6.51934,3.386668 -0.59266,7.112003 -4.48733,11.514675 -3.89467,4.40266 -11.09134,4.40266 -5.24934,0 -8.04334,-4.14866 -2.794,-4.233339 -2.794,-9.821341 0,-5.672669 3.302,-10.668005 3.38667,-4.995335 8.63601,-4.995335 2.37066,-1.693334 5.588,-1.693334 3.302,0 6.096,3.471335 2.794,3.471335 2.87867,9.059337 z m -5.50334,4.318002 -3.048,0.169333 q -3.89467,0 -6.604,-2.286001 -2.70934,-2.370668 -2.70934,-5.164669 0,-2.794001 0.93134,-4.826002 -3.64067,2.878668 -3.64067,11.345338 0,4.064002 1.69333,7.789337 1.69334,3.640665 5.33401,3.640665 3.64066,0 5.67267,-3.047998 2.032,-3.132668 2.37066,-7.620003 z m -5.24933,-14.054673 q -1.35467,0 -2.11667,1.270001 -0.762,1.185333 -0.762,2.624667 0,3.132668 2.11667,5.080003 2.20133,1.947334 5.08,1.947334 h 1.016 q -0.16933,-4.148669 -1.43933,-7.535337 -1.18534,-3.386668 -3.89467,-3.386668 z"
       id="path345" />
    <path
       d="m 544.8294,97.442148 0.508,-9.482671 q 0,-9.059337 0.84667,-9.906004 0.84667,-0.846667 2.96334,-2.455334 2.20133,-1.693334 3.13266,-1.693334 1.016,0 1.27,0.338667 0.254,0.338667 0.254,1.354667 0,3.640668 -1.60866,7.366003 -1.27,7.789337 -1.27,12.784672 0,4.995336 1.60866,4.995336 1.94734,0 4.57201,-3.386669 2.62466,-3.386668 5.24933,-10.075337 0.762,-8.46667 1.18533,-9.144004 0.50801,-0.677334 2.37067,-2.455334 1.86267,-1.778001 3.048,-1.778001 1.27,0 1.27,3.217335 0,0.846667 -0.508,3.302001 -0.42333,2.455334 -1.016,3.556001 -0.93133,2.370668 -0.93133,14.64734 0,2.285998 0.508,2.285998 1.43933,-0.0847 3.97934,-3.555999 2.54,-3.556001 4.99533,-9.059337 2.54,-5.503335 3.048,-5.503335 0.59267,0 0.59267,0.677333 0,2.370668 -2.45534,7.535337 -6.68866,14.224001 -11.26067,14.224001 -3.302,0 -4.99533,-1.35466 -0.59267,-0.59267 -0.59267,-3.64067 0,-3.048002 0.254,-6.773337 -2.70933,5.757336 -5.41867,8.805337 -2.70933,2.96333 -6.096,2.96333 -3.302,0 -4.40267,-1.778 -1.10067,-1.778 -1.10067,-6.011332 z"
       id="path347" />
    <path
       d="m 583.09873,82.710142 4.65667,-0.508 q 0.67733,0 1.18533,0.762 0.508,0.762 0.508,1.608667 0,0.846667 -0.59267,5.757336 -0.508,4.910669 -0.508,7.789337 0,2.793998 0.508,2.793998 1.43934,-0.0847 3.97934,-3.555999 2.54,-3.556001 4.99533,-9.059337 2.54,-5.503335 3.048,-5.503335 0.59267,0 0.59267,0.677333 0,2.370668 -2.45533,7.535337 -6.68867,14.224001 -11.26067,14.224001 -3.30201,0 -4.99534,-1.35466 -0.59267,-0.59267 -0.59267,-7.366006 0,-6.773336 1.43934,-11.599338 -4.91067,0 -6.85801,-3.132668 -1.016,-1.608667 -1.016,-3.640668 0,-2.032001 0.84667,-3.556001 0.84667,-1.524001 2.37067,-1.524001 1.60867,0 2.87867,1.693334 1.35466,1.608667 1.35466,3.640668 0,2.032001 -1.18533,4.064002 0.33867,0.254 1.10067,0.254 z"
       id="path349" />
    <path
       d="m 603.92669,100.23615 0.0847,2.62467 q 0,2.37066 -1.35467,2.37066 -2.032,0 -3.89467,-0.508 -1.86266,-0.59266 -1.86266,-1.524 0,-1.016 0.42333,-6.688666 0.508,-5.757335 0.508,-8.636003 v -4.995336 q 0,-4.064001 0.84667,-4.910668 0.84666,-0.846667 2.96333,-2.455335 2.20134,-1.608667 3.13267,-1.608667 1.016,0 1.27,0.338667 0.254,0.338667 0.254,1.27 0,4.487335 -1.69333,8.46667 -0.42334,4.826003 -0.42334,6.68867 0.33867,-0.508 3.556,-5.757336 3.21734,-5.249335 5.41867,-7.70467 2.286,-2.455334 4.064,-2.455334 1.77801,0 3.13267,1.185334 1.43934,1.185334 1.43934,2.963334 0,3.725335 -0.84667,11.006672 -0.762,7.196669 -0.762,9.144003 0,1.862665 0.508,1.862665 1.43933,-0.0847 3.97933,-3.555999 2.54001,-3.556001 4.99534,-9.059337 2.54,-5.503335 3.048,-5.503335 0.59267,0 0.59267,0.677333 0,2.370668 -2.45534,7.535337 -6.68867,14.224001 -11.26067,14.224001 -3.302,0 -4.99533,-1.35466 -0.59267,-0.59267 -0.59267,-3.048 0,-2.540005 0.42333,-8.128007 0.508,-5.672669 0.508,-8.46667 0,-2.794002 -1.016,-2.794002 -0.93133,0 -5.08,5.842003 -4.14867,5.757336 -4.40267,7.366003 -0.508,2.963335 -0.508,5.588003 z"
       id="path351" />
    <path
       d="m 652.52523,105.23148 q -3.302,0 -4.99534,-1.35466 -0.59267,-0.59267 -0.59267,-2.96334 0,-2.455331 0.16934,-6.519333 -2.20134,5.503336 -4.40267,8.212673 -2.11667,2.62466 -5.50334,2.62466 -3.38666,0 -5.92667,-3.13266 -2.54,-3.217338 -2.54,-9.990674 0,-6.858003 3.81001,-12.107339 3.89466,-5.249335 10.16,-5.249335 2.70933,0 6.096,3.556001 0.67734,-0.931333 2.37067,-2.201334 1.778,-1.354667 2.96333,-1.354667 1.27,0 1.27,3.217335 0,0.846667 -0.508,3.302001 -0.42333,2.455334 -1.016,3.556002 -0.762,1.947334 -0.762,13.800672 0,2.285998 0.508,2.285998 1.43934,-0.0847 3.97934,-3.555999 2.54,-3.556001 4.99533,-9.059337 2.54001,-5.503335 3.04801,-5.503335 0.59266,0 0.59266,0.677333 0,2.370668 -2.45533,7.535337 -6.68867,14.224001 -11.26067,14.224001 z M 642.19589,78.13814 q -2.37067,0 -5.08,3.556002 -2.62467,3.471334 -2.62467,8.21267 0,4.741335 1.35467,7.789336 1.43933,3.048002 3.72533,3.048002 2.794,0 8.21267,-13.970006 0.0847,-0.677334 0.16934,-2.286001 0.16933,-1.693334 0.254,-2.540001 -0.76201,-1.354668 -2.70934,-2.540001 -1.86267,-1.270001 -3.302,-1.270001 z"
       id="path353" />
    <path
       d="m 667.34186,105.23148 q -1.86267,0 -3.47133,-0.42333 -1.52401,-0.508 -1.86267,-0.93133 -0.84667,-1.016 -0.84667,-10.498674 0,-9.567337 2.11667,-25.90801 1.778,-13.462006 8.29734,-13.462006 1.524,0 2.20133,1.693334 0.67733,1.608667 0.67733,3.132668 0,11.006671 -6.68867,24.63801 -0.254,7.027337 -0.254,12.276672 0,5.164666 0.93134,5.164666 1.43933,-0.0847 3.97933,-3.555999 2.54,-3.556001 4.99534,-9.059337 2.54,-5.503335 3.048,-5.503335 0.59267,0 0.59267,0.677333 0,2.370668 -2.45534,7.535337 -6.68867,14.224001 -11.26067,14.224001 z m 4.99534,-45.635348 q 0,-2.709334 -0.67734,-2.709334 -2.54,0 -3.72533,21.082009 4.40267,-11.599339 4.40267,-18.372675 z"
       id="path355" />
  </g>
</svg>
