<?xml version="1.0" encoding="UTF-8" standalone="no"?>
<!-- Created with Inkscape (http://www.inkscape.org/) -->

<svg
   width="68.862259mm"
   height="71.237144mm"
   viewBox="0 0 68.862259 71.237144"
   version="1.1"
   id="svg5"
   xml:space="preserve"
   xmlns:inkscape="http://www.inkscape.org/namespaces/inkscape"
   xmlns:sodipodi="http://sodipodi.sourceforge.net/DTD/sodipodi-0.dtd"
   xmlns="http://www.w3.org/2000/svg"
   xmlns:svg="http://www.w3.org/2000/svg"><sodipodi:namedview
     id="namedview7"
     pagecolor="#ffffff"
     bordercolor="#000000"
     borderopacity="0.25"
     inkscape:showpageshadow="2"
     inkscape:pageopacity="0.0"
     inkscape:pagecheckerboard="0"
     inkscape:deskcolor="#d1d1d1"
     inkscape:document-units="mm"
     showgrid="false" /><defs
     id="defs2" /><g
     inkscape:label="Layer 1"
     inkscape:groupmode="layer"
     id="layer1"
     transform="translate(3.7233202,2.6992143)"><g
       id="g8737"
       transform="translate(-8.4307515,-11.708902)"><path
         style="fill:#b2b2a9;fill-opacity:1;stroke-width:1.33333"
         d="m -517.22062,-205.41424 8.36738,-9.12549 66.24284,1.02636 8.43104,7.34275 0.75659,122.728447 -84.76707,0.668067 z"
         id="path6513"
         transform="matrix(0.1984375,0,0,0.1984375,146.52228,65.768614)" /><g
         style="fill:#000000"
         id="g59"
         transform="matrix(0.14883958,0,0,0.14883958,35.46676,17.139308)"><rect
           width="256"
           height="256"
           fill="none"
           id="rect38"
           x="0"
           y="0" /><path
           d="M 56,216 V 56 A 16,16 0 0 1 72,40 h 80 a 16,16 0 0 1 16,16 v 160"
           fill="none"
           stroke="#000000"
           stroke-linecap="round"
           stroke-linejoin="round"
           stroke-width="16"
           id="path40" /><line
           x1="32"
           y1="216"
           x2="192"
           y2="216"
           fill="none"
           stroke="#000000"
           stroke-linecap="round"
           stroke-linejoin="round"
           stroke-width="16"
           id="line42" /><path
           d="m 168,112 h 24 a 16,16 0 0 1 16,16 v 40 a 16,16 0 0 0 16,16 v 0 a 16,16 0 0 0 16,-16 V 86.6 A 16.1,16.1 0 0 0 235.3,75.3 L 216,56"
           fill="none"
           stroke="#000000"
           stroke-linecap="round"
           stroke-linejoin="round"
           stroke-width="16"
           id="path44" /><line
           x1="136"
           y1="112"
           x2="88"
           y2="112"
           fill="none"
           stroke="#000000"
           stroke-linecap="round"
           stroke-linejoin="round"
           stroke-width="16"
           id="line46" /></g></g><g
       id="g8762"
       transform="translate(-13.072118,-7.7264909)"><path
         style="fill:#f5d547;fill-opacity:1;stroke-width:0.264583"
         d="M 19.213367,9.2543644 36.441104,9.4392585 36.960216,36.445672 19.199687,36.817661 Z"
         id="path5731" /><g
         style="fill:#000000"
         id="g91"
         transform="matrix(0.14395906,0,0,0.14395906,9.3487978,5.0272766)"><rect
           width="256"
           height="256"
           fill="none"
           id="rect61"
           x="0"
           y="0" /><rect
           x="64"
           y="32"
           width="128"
           height="192"
           rx="8"
           fill="none"
           stroke="#000000"
           stroke-linecap="round"
           stroke-linejoin="round"
           stroke-width="16"
           id="rect63" /><circle
           cx="128"
           cy="88"
           r="24"
           fill="none"
           stroke="#000000"
           stroke-linecap="round"
           stroke-linejoin="round"
           stroke-width="16"
           id="circle65" /><circle
           cx="128"
           cy="168"
           r="24"
           fill="none"
           stroke="#000000"
           stroke-linecap="round"
           stroke-linejoin="round"
           stroke-width="16"
           id="circle67" /><line
           x1="192"
           y1="72"
           x2="216"
           y2="72"
           fill="none"
           stroke="#000000"
           stroke-linecap="round"
           stroke-linejoin="round"
           stroke-width="16"
           id="line69" /><line
           x1="192"
           y1="152"
           x2="216"
           y2="152"
           fill="none"
           stroke="#000000"
           stroke-linecap="round"
           stroke-linejoin="round"
           stroke-width="16"
           id="line71" /><line
           x1="40"
           y1="72"
           x2="64"
           y2="72"
           fill="none"
           stroke="#000000"
           stroke-linecap="round"
           stroke-linejoin="round"
           stroke-width="16"
           id="line73" /><line
           x1="40"
           y1="152"
           x2="64"
           y2="152"
           fill="none"
           stroke="#000000"
           stroke-linecap="round"
           stroke-linejoin="round"
           stroke-width="16"
           id="line75" /></g></g><g
       id="g8776"
       transform="translate(-31.565312,-93.998902)"><g
         id="g4949"
         transform="matrix(0.1984375,0,0,0.1984375,159.90084,72.008164)"
         style="fill:none"><path
           style="fill:#d4e2fd;fill-opacity:1;stroke-width:1.33333"
           d="m -559.5333,252.40878 c 122.55381,-0.65745 124.06666,0.15756 124.06666,0.15756 l 32.35787,65.63394 -190.0434,1.4004 z"
           id="path305" /><path
           style="fill:#3c3c3b;fill-opacity:1;stroke-width:1.33333"
           d="m -595.77746,384.91499 40.55621,-0.30519 -0.5157,28.75073 -38.07915,-0.35977 z"
           id="path1201" /><path
           style="fill:#3c3c3b;fill-opacity:1;stroke-width:1.33333"
           d="m -441.68241,384.96248 39.36773,-0.29188 -0.53712,28.5576 -37.99756,0.75496 z"
           id="path1257" /><path
           style="fill:#db3069;fill-opacity:1;stroke-width:1.33333"
           d="m -594.41433,324.795 1.7038,55.35682 189.59496,-0.69458 0.8253,-55.4016 z"
           id="path1259" /></g><rect
         width="50.799999"
         height="50.799999"
         fill="none"
         id="rect9"
         x="35.554253"
         y="111.73683"
         style="fill:none;stroke-width:0.198437" /><line
         x1="38.729252"
         y1="135.54933"
         x2="83.179253"
         y2="135.54933"
         fill="none"
         stroke="#000000"
         stroke-linecap="round"
         stroke-linejoin="round"
         stroke-width="3.175"
         id="line11"
         style="fill:none" /><path
         d="m 80.004253,148.24933 v 4.7625 a 1.5875,1.5875 0 0 1 -1.5875,1.5875 h -4.7625 a 1.5875,1.5875 0 0 1 -1.5875,-1.5875 v -4.7625"
         fill="none"
         stroke="#000000"
         stroke-linecap="round"
         stroke-linejoin="round"
         stroke-width="3.175"
         id="path13"
         style="fill:none" /><path
         d="m 49.841753,148.24933 v 4.7625 a 1.5875,1.5875 0 0 1 -1.5875,1.5875 h -4.7625 a 1.5875,1.5875 0 0 1 -1.5875,-1.5875 v -4.7625"
         fill="none"
         stroke="#000000"
         stroke-linecap="round"
         stroke-linejoin="round"
         stroke-width="3.175"
         id="path15"
         style="fill:none" /><line
         x1="48.25425"
         y1="141.89934"
         x2="51.429253"
         y2="141.89934"
         fill="none"
         stroke="#000000"
         stroke-linecap="round"
         stroke-linejoin="round"
         stroke-width="3.175"
         id="line17"
         style="fill:none" /><line
         x1="70.479248"
         y1="141.89934"
         x2="73.654251"
         y2="141.89934"
         fill="none"
         stroke="#000000"
         stroke-linecap="round"
         stroke-linejoin="round"
         stroke-width="3.175"
         id="line19"
         style="fill:none" /><path
         d="m 80.004253,135.54933 -5.933281,-13.335 a 1.5875,1.5875 0 0 0 -1.448594,-0.9525 h -23.33625 a 1.5875,1.5875 0 0 0 -1.448594,0.9525 l -5.933281,13.335 v 12.7 h 38.1 z"
         fill="none"
         stroke="#000000"
         stroke-linecap="round"
         stroke-linejoin="round"
         stroke-width="3.175"
         id="path21"
         style="fill:none" /></g></g></svg>
